<?xml version="1.0" encoding="UTF-8"?>
<svg xmlns="http://www.w3.org/2000/svg" xmlns:xlink="http://www.w3.org/1999/xlink" width="450pt" height="299.999988pt" viewBox="0 0 450 299.999988" version="1.2">
<defs>
<clipPath id="clip1">
  <path d="M 15.484375 128 L 174 128 L 174 212 L 15.484375 212 Z M 15.484375 128 "/>
</clipPath>
<clipPath id="clip2">
  <path d="M 21 256 L 81 256 L 81 295.246094 L 21 295.246094 Z M 21 256 "/>
</clipPath>
</defs>
<g id="surface1">
<g clip-path="url(#clip1)" clip-rule="nonzero">
<path style=" stroke:none;fill-rule:nonzero;fill:rgb(30.198669%,29.798889%,30.198669%);fill-opacity:1;" d="M 172.242188 130.519531 C 159.324219 138.496094 149.433594 134.601562 136.019531 130.828125 C 133.992188 130.023438 131.90625 129.441406 129.753906 129.078125 C 127.605469 128.714844 125.4375 128.582031 123.261719 128.679688 C 121.082031 128.773438 118.9375 129.097656 116.828125 129.648438 C 114.714844 130.199219 112.6875 130.960938 110.738281 131.941406 C 104.222656 137.339844 99.09375 143.832031 95.347656 151.417969 C 93.246094 154.757812 91.144531 158.097656 89.167969 161.3125 C 88.082031 163.011719 86.660156 164.351562 84.902344 165.332031 C 83.925781 165.371094 83.121094 165.761719 82.488281 166.507812 C 77.6875 166.152344 72.886719 166.152344 68.085938 166.507812 C 66.4375 166.476562 64.796875 166.605469 63.171875 166.890625 C 61.542969 167.175781 59.957031 167.617188 58.417969 168.210938 C 56.875 168.804688 55.40625 169.539062 54.007812 170.417969 C 52.605469 171.296875 51.304688 172.300781 50.101562 173.433594 C 44.605469 178.863281 40.152344 185.046875 36.75 191.984375 C 34.464844 197.121094 31.355469 201.695312 27.414062 205.710938 C 25.886719 206.46875 24.277344 206.980469 22.59375 207.253906 C 22.257812 207.289062 22.035156 207.464844 21.917969 207.78125 C 21.804688 208.097656 21.863281 208.375 22.097656 208.617188 C 20.226562 209.222656 18.3125 209.449219 16.351562 209.296875 C 16.121094 209.296875 15.921875 209.378906 15.761719 209.539062 C 15.597656 209.703125 15.515625 209.898438 15.515625 210.128906 C 15.515625 210.359375 15.597656 210.558594 15.761719 210.722656 C 15.921875 210.882812 16.121094 210.964844 16.351562 210.964844 C 31.554688 213.375 38.046875 204.226562 46.144531 192.414062 C 51.089844 185.179688 58.199219 176.832031 67.71875 177.265625 C 73.300781 178.332031 78.925781 178.621094 84.59375 178.132812 C 82.292969 183.617188 81.363281 189.328125 81.808594 195.257812 C 81.808594 196.25 83.355469 196.25 83.542969 195.257812 C 83.769531 194.152344 84.058594 193.058594 84.40625 191.984375 C 84.40625 191.984375 84.714844 191.984375 84.839844 191.613281 C 90.03125 182.210938 103.382812 181.964844 111.726562 176.523438 C 112.179688 176.226562 112.53125 175.832031 112.777344 175.347656 C 113.425781 175.152344 113.964844 174.796875 114.398438 174.28125 C 114.832031 173.761719 115.085938 173.167969 115.167969 172.5 C 115.25 171.828125 115.140625 171.191406 114.839844 170.585938 C 114.542969 169.984375 114.101562 169.507812 113.519531 169.167969 C 111.203125 168.132812 108.789062 167.453125 106.273438 167.128906 C 103.757812 166.800781 101.25 166.839844 98.746094 167.25 C 103.257812 161.066406 106.660156 153.644531 110.675781 147.402344 C 111.277344 146.101562 112.023438 144.890625 112.914062 143.769531 C 113.804688 142.644531 114.816406 141.644531 115.945312 140.761719 C 117.074219 139.882812 118.289062 139.144531 119.59375 138.550781 C 120.894531 137.960938 122.25 137.53125 123.65625 137.261719 C 130.847656 136.746094 137.894531 137.527344 144.796875 139.609375 C 155.613281 141.898438 166.617188 141.464844 173.355469 131.695312 C 173.515625 131.542969 173.601562 131.351562 173.605469 131.128906 C 173.613281 130.90625 173.539062 130.714844 173.386719 130.550781 C 173.230469 130.390625 173.042969 130.304688 172.820312 130.300781 C 172.597656 130.292969 172.40625 130.367188 172.242188 130.519531 Z M 90.835938 179.617188 L 91.328125 178.9375 L 91.824219 178.441406 L 91.824219 178.875 Z M 90.835938 179.617188 "/>
</g>
<path style=" stroke:none;fill-rule:nonzero;fill:rgb(30.198669%,29.798889%,30.198669%);fill-opacity:1;" d="M 267.558594 175.472656 C 264.25 173.078125 260.726562 171.058594 256.984375 169.421875 C 253.246094 167.785156 249.371094 166.566406 245.367188 165.765625 C 243.332031 165.613281 241.308594 165.691406 239.289062 166.003906 C 237.273438 166.3125 235.316406 166.84375 233.421875 167.601562 C 231.527344 168.355469 229.738281 169.3125 228.0625 170.476562 C 226.386719 171.636719 224.859375 172.972656 223.484375 174.484375 C 220.332031 177.328125 217.304688 180.667969 214.277344 183.386719 C 210.371094 186.222656 206.25 188.695312 201.914062 190.808594 C 190.417969 192.664062 178.054688 191.300781 168.101562 197.734375 C 153.144531 207.378906 154.070312 228.648438 139.542969 238.667969 C 138.429688 239.46875 139.542969 241.078125 140.78125 240.335938 C 154.5625 231.742188 158.707031 216.160156 170.386719 205.769531 C 176.570312 200.328125 184.421875 201.132812 191.898438 201.753906 C 193.710938 201.90625 195.527344 201.90625 197.339844 201.753906 C 195.546875 204.535156 193.507812 207.253906 191.777344 210.160156 C 190.046875 213.066406 194.679688 215.601562 196.410156 213.003906 C 198.144531 210.410156 200.058594 208.058594 201.976562 205.648438 C 203.226562 206.265625 204.546875 206.683594 205.929688 206.894531 C 207.308594 207.105469 208.691406 207.101562 210.074219 206.882812 C 215.820312 206.882812 221.507812 206.265625 227.257812 206.453125 C 231.523438 206.453125 234.425781 200.269531 229.605469 198.597656 C 224.785156 196.929688 221.074219 195.257812 216.808594 193.960938 C 222.992188 189.199219 228.121094 181.59375 233.375 177.574219 C 234.121094 177.023438 234.898438 176.527344 235.710938 176.082031 C 236.523438 175.640625 237.363281 175.253906 238.230469 174.921875 C 239.09375 174.59375 239.976562 174.324219 240.878906 174.117188 C 241.78125 173.90625 242.695312 173.761719 243.617188 173.675781 C 244.539062 173.59375 245.460938 173.570312 246.386719 173.613281 C 247.3125 173.65625 248.230469 173.761719 249.140625 173.929688 C 250.050781 174.09375 250.945312 174.324219 251.824219 174.613281 C 252.707031 174.902344 253.5625 175.25 254.394531 175.660156 C 257.917969 176.832031 269.722656 183.882812 273.371094 182.152344 C 273.15625 182.238281 273.003906 182.382812 272.914062 182.597656 C 272.824219 182.808594 272.820312 183.019531 272.90625 183.234375 C 272.992188 183.445312 273.140625 183.597656 273.351562 183.6875 C 273.5625 183.78125 273.773438 183.78125 273.988281 183.695312 L 274.421875 183.695312 C 274.738281 183.578125 274.925781 183.351562 274.976562 183.015625 C 275.101562 180.046875 269.414062 176.832031 267.558594 175.472656 Z M 267.558594 175.472656 "/>
<path style=" stroke:none;fill-rule:nonzero;fill:rgb(30.198669%,29.798889%,30.198669%);fill-opacity:1;" d="M 278.003906 110.238281 C 273.121094 112.21875 267.125 107.703125 262.121094 107.640625 C 260.5 107.648438 258.90625 107.84375 257.332031 108.21875 C 255.757812 108.59375 254.246094 109.144531 252.800781 109.867188 C 251.355469 110.589844 250.007812 111.46875 248.761719 112.503906 C 247.519531 113.539062 246.40625 114.699219 245.429688 115.988281 C 244.238281 115.585938 243.015625 115.308594 241.769531 115.15625 C 240.519531 115 239.269531 114.976562 238.015625 115.078125 C 236.761719 115.175781 235.53125 115.402344 234.324219 115.753906 C 233.113281 116.105469 231.953125 116.578125 230.84375 117.164062 C 225.3125 121.703125 220.347656 126.796875 215.945312 132.4375 C 215.078125 133.300781 216.5 134.785156 217.429688 133.984375 C 225.21875 127.121094 232.140625 119.265625 243.019531 121.925781 C 242.621094 122.179688 242.25 122.464844 241.90625 122.792969 C 241.558594 123.261719 241.363281 123.789062 241.324219 124.375 C 241.28125 124.960938 241.402344 125.507812 241.679688 126.023438 C 241.957031 126.539062 242.347656 126.941406 242.859375 127.230469 C 243.371094 127.515625 243.917969 127.644531 244.503906 127.613281 C 247.222656 127.242188 254.207031 126.253906 252.167969 121.800781 C 251.894531 121.230469 251.503906 120.753906 250.992188 120.378906 C 252.476562 119.082031 253.960938 117.722656 255.628906 116.546875 C 258.53125 114.851562 261.664062 114.066406 265.023438 114.195312 C 267.621094 114.195312 270.15625 114.195312 272.6875 113.824219 C 274.695312 113.1875 276.570312 112.28125 278.3125 111.105469 C 278.996094 110.917969 278.625 109.992188 278.003906 110.238281 Z M 247.097656 125.757812 C 247.296875 125.976562 247.523438 126.164062 247.777344 126.316406 Z M 247.097656 125.757812 "/>
<g clip-path="url(#clip2)" clip-rule="nonzero">
<path style=" stroke:none;fill-rule:nonzero;fill:rgb(30.198669%,29.798889%,30.198669%);fill-opacity:1;" d="M 79.957031 256.785156 C 73.125 256.058594 66.449219 256.78125 59.929688 258.949219 C 57.027344 260.347656 54.449219 262.199219 52.199219 264.503906 C 49.945312 266.8125 48.15625 269.429688 46.824219 272.367188 C 35.078125 272.367188 27.476562 284.734375 21.667969 293.820312 C 21.496094 294.035156 21.425781 294.277344 21.457031 294.550781 C 21.488281 294.820312 21.609375 295.042969 21.820312 295.210938 C 22.035156 295.382812 22.277344 295.453125 22.546875 295.421875 C 22.820312 295.394531 23.039062 295.273438 23.210938 295.058594 C 26.796875 291.410156 29.761719 287.269531 33.164062 283.433594 C 34.027344 282.527344 34.980469 281.722656 36.015625 281.019531 C 37.054688 280.3125 38.152344 279.726562 39.3125 279.257812 C 40.476562 278.789062 41.675781 278.449219 42.910156 278.234375 C 44.144531 278.019531 45.386719 277.941406 46.636719 277.992188 L 46.390625 278.550781 C 45.902344 279.667969 45.800781 280.824219 46.082031 282.011719 C 45.773438 283.496094 47.441406 285.164062 48.742188 283.929688 C 49.582031 283.929688 50.261719 283.597656 50.78125 282.9375 L 52.574219 280.714844 C 55.476562 281.949219 58.753906 277.621094 55.664062 275.394531 C 54.777344 274.628906 53.746094 274.257812 52.574219 274.28125 C 53.628906 271.890625 55.0625 269.75 56.867188 267.863281 C 58.671875 265.972656 60.742188 264.441406 63.082031 263.277344 C 68.550781 261.3125 74.15625 259.871094 79.894531 258.949219 C 81.007812 258.699219 81.316406 256.785156 79.957031 256.785156 Z M 79.957031 256.785156 "/>
</g>
<path style=" stroke:none;fill-rule:nonzero;fill:rgb(30.198669%,29.798889%,30.198669%);fill-opacity:1;" d="M 443.109375 167.25 C 437.855469 156.921875 432.414062 142.082031 419.308594 140.660156 C 406.207031 139.238281 400.023438 154.449219 388.402344 156.738281 C 385.519531 154.636719 382.410156 152.953125 379.074219 151.683594 C 375.742188 150.414062 372.296875 149.605469 368.746094 149.253906 C 355.582031 149.253906 346.308594 162.859375 338.398438 171.269531 C 337.59375 172.070312 338.828125 173.0625 339.695312 172.628906 C 347.546875 168.113281 362.007812 155.191406 371.652344 158.46875 C 376.402344 161.105469 381.304688 163.414062 386.363281 165.394531 L 386.859375 165.394531 C 383.921875 166.328125 381.148438 167.617188 378.539062 169.261719 C 375.933594 170.90625 373.574219 172.851562 371.46875 175.101562 C 370.292969 176.339844 371.960938 178.625 373.445312 177.824219 C 383.210938 172.566406 393.535156 169.476562 403.796875 175.289062 C 404.5 175.648438 405.246094 175.804688 406.035156 175.75 C 406.824219 175.695312 407.542969 175.441406 408.191406 174.988281 C 408.839844 174.535156 409.324219 173.945312 409.644531 173.222656 C 409.964844 172.5 410.074219 171.746094 409.976562 170.960938 C 408.988281 166.199219 407.195312 165.703125 403.113281 164.035156 C 402.765625 163.867188 402.394531 163.753906 402.011719 163.695312 C 401.628906 163.636719 401.242188 163.636719 400.859375 163.691406 C 400.472656 163.746094 400.105469 163.855469 399.753906 164.019531 C 399.398438 164.183594 399.078125 164.394531 398.789062 164.652344 L 397.859375 164.652344 C 402.125 161.859375 405.996094 158.601562 409.480469 154.882812 C 422.523438 142.515625 432.722656 159.953125 441.6875 168.796875 C 441.789062 168.890625 441.90625 168.960938 442.035156 169.007812 C 442.167969 169.054688 442.300781 169.078125 442.441406 169.070312 C 442.578125 169.066406 442.710938 169.03125 442.839844 168.972656 C 442.964844 168.914062 443.074219 168.835938 443.167969 168.730469 C 443.261719 168.628906 443.335938 168.511719 443.382812 168.382812 C 443.429688 168.253906 443.453125 168.117188 443.445312 167.976562 C 443.441406 167.839844 443.40625 167.707031 443.347656 167.582031 C 443.289062 167.453125 443.210938 167.34375 443.109375 167.25 Z M 401.878906 172.628906 C 401.878906 172.628906 401.878906 172.628906 401.445312 173 Z M 401.878906 172.628906 "/>
<path style=" stroke:none;fill-rule:nonzero;fill:rgb(30.198669%,29.798889%,30.198669%);fill-opacity:1;" d="M 391.433594 106.28125 C 390.632812 104.703125 389.640625 103.253906 388.460938 101.933594 C 387.28125 100.613281 385.949219 99.46875 384.46875 98.5 C 382.988281 97.527344 381.410156 96.761719 379.726562 96.207031 C 378.046875 95.648438 376.324219 95.320312 374.558594 95.214844 C 371.03125 95.570312 367.617188 96.390625 364.3125 97.671875 C 361.007812 98.949219 357.933594 100.644531 355.085938 102.757812 C 353.292969 101.90625 351.402344 101.398438 349.421875 101.238281 C 347.441406 101.078125 345.496094 101.277344 343.589844 101.828125 C 341.164062 102.625 338.957031 103.820312 336.96875 105.417969 C 334.976562 107.015625 333.332031 108.910156 332.03125 111.105469 C 331.953125 111.285156 331.933594 111.46875 331.980469 111.65625 C 332.027344 111.847656 332.125 112.003906 332.277344 112.125 C 332.429688 112.25 332.601562 112.3125 332.796875 112.320312 C 332.992188 112.324219 333.167969 112.269531 333.328125 112.15625 C 334.390625 111.1875 335.550781 110.351562 336.808594 109.652344 C 338.066406 108.953125 339.386719 108.410156 340.769531 108.015625 C 342.152344 107.625 343.5625 107.398438 345 107.335938 C 346.4375 107.269531 347.863281 107.375 349.277344 107.640625 C 348.867188 107.964844 348.578125 108.375 348.410156 108.871094 C 348.242188 109.363281 348.222656 109.863281 348.347656 110.371094 C 348.476562 110.875 348.730469 111.308594 349.109375 111.664062 C 349.488281 112.023438 349.9375 112.246094 350.449219 112.339844 L 356.199219 113.207031 C 357.3125 113.207031 358.363281 114.195312 359.535156 114.257812 C 360.050781 114.324219 360.558594 114.289062 361.058594 114.160156 C 361.5625 114.03125 362.019531 113.816406 362.441406 113.511719 C 362.859375 113.207031 363.207031 112.835938 363.484375 112.398438 C 363.761719 111.960938 363.953125 111.488281 364.050781 110.980469 C 364.144531 110.292969 364.058594 109.628906 363.792969 108.984375 C 363.527344 108.34375 363.121094 107.8125 362.566406 107.394531 C 364.972656 105.914062 367.464844 104.59375 370.046875 103.4375 C 377.585938 100.285156 383.398438 103.4375 389.824219 107.578125 C 389.910156 107.6875 390.015625 107.773438 390.136719 107.835938 C 390.253906 107.902344 390.382812 107.941406 390.519531 107.957031 C 390.65625 107.972656 390.789062 107.960938 390.921875 107.921875 C 391.050781 107.882812 391.171875 107.820312 391.277344 107.734375 C 391.382812 107.648438 391.46875 107.542969 391.535156 107.425781 C 391.601562 107.304688 391.640625 107.175781 391.65625 107.039062 C 391.667969 106.902344 391.65625 106.769531 391.617188 106.636719 C 391.582031 106.507812 391.519531 106.386719 391.433594 106.28125 Z M 391.433594 106.28125 "/>
<path style=" stroke:none;fill-rule:nonzero;fill:rgb(30.198669%,29.798889%,30.198669%);fill-opacity:1;" d="M 334.5625 22.746094 C 321.335938 16.128906 307.242188 8.460938 292.347656 6.484375 C 281.960938 5.246094 267.621094 10.5625 265.582031 21.816406 C 260.511719 20.519531 255.359375 19.867188 250.128906 19.867188 C 244.894531 19.867188 239.742188 20.519531 234.675781 21.816406 C 219.53125 26.269531 210.691406 45.253906 194 42.347656 C 193.769531 42.339844 193.558594 42.40625 193.371094 42.539062 C 193.179688 42.675781 193.050781 42.851562 192.980469 43.074219 C 192.90625 43.296875 192.910156 43.515625 192.984375 43.734375 C 193.058594 43.957031 193.191406 44.132812 193.382812 44.261719 C 207.167969 51.496094 217.738281 41.171875 229.480469 34.742188 C 231.9375 33.265625 234.535156 32.117188 237.277344 31.289062 C 240.015625 30.460938 242.816406 29.984375 245.675781 29.855469 L 254.949219 29.855469 C 253.652344 32.082031 252.351562 34.371094 251.179688 36.59375 C 250.921875 37.171875 250.824219 37.773438 250.890625 38.398438 C 250.953125 39.027344 251.171875 39.59375 251.539062 40.105469 C 251.910156 40.617188 252.382812 41 252.960938 41.257812 C 253.535156 41.511719 254.136719 41.609375 254.761719 41.542969 C 260.945312 40.738281 267.125 39.007812 273.308594 38.265625 C 274.246094 38.304688 275.070312 38.019531 275.78125 37.398438 L 278.128906 37.398438 C 278.503906 37.441406 278.875 37.425781 279.246094 37.355469 C 279.613281 37.28125 279.964844 37.15625 280.296875 36.976562 C 280.628906 36.796875 280.925781 36.574219 281.191406 36.304688 C 281.453125 36.035156 281.671875 35.734375 281.839844 35.398438 C 282.011719 35.0625 282.128906 34.707031 282.191406 34.335938 C 282.257812 33.964844 282.261719 33.59375 282.214844 33.21875 C 282.164062 32.847656 282.058594 32.488281 281.898438 32.148438 C 281.742188 31.804688 281.535156 31.496094 281.28125 31.214844 C 280.371094 30.074219 279.292969 29.113281 278.050781 28.339844 C 276.8125 27.5625 275.476562 27.019531 274.050781 26.703125 C 277.015625 22.4375 278.4375 17.796875 284.433594 16.375 C 290.363281 15.585938 296.191406 16.039062 301.925781 17.734375 C 312.1875 20.269531 323.066406 25.03125 334.253906 25.03125 C 335.429688 25.03125 335.492188 23.238281 334.5625 22.746094 Z M 334.5625 22.746094 "/>
</g>
</svg>
